<svg height="600" version="1.1" width="800" xmlns="http://www.w3.org/2000/svg" preserveAspectRatio="xMidYMid meet" viewBox="0 0 600 442" xmlns:xlink="http://www.w3.org/1999/xlink"><desc>Created with Snap</desc><defs/><g id="root" contentwidth="209.20000000000002" contentheight="209.49999999999997">
          <rect class="background" height="2000%" width="2000%" y="-1000%" x="-1000%" style="" fill="none"/>
          <g class="content" id="content" transform="matrix(1,0,0,1,192.3,325.15)">
            <g class="icon" style="mask: url(#mask);">
            <svg height="147.7" version="1.1" width="147.7" xmlns="http://www.w3.org/2000/svg" x="33.850000000000016" y="-208.89999999999998"><desc>Created with Snap</desc><defs/><svg xmlns="http://www.w3.org/2000/svg" xmlns:xlink="http://www.w3.org/1999/xlink" preserveAspectRatio="xMidYMid meet" viewBox="0 0 512 512">
<g fill="#648cf5" style="">
<svg class="icon" preserveAspectRatio="xMidYMid meet" version="1.0" viewBox="0 0 512 512">
<g>
<svg height="512" preserveAspectRatio="xMidYMid meet" width="512">
<svg version="1.1" viewBox="0 0 1562 1713">
<path d="M0 0 C15.1 22.7 0.9 79.3 -4 105 C-10.4 136.6 -21.4 166.9 -35 196 C-35.5 197.1 -36 198.1 -36.5 199.2 C-54.5 237.5 -78.7 273.8 -105.6 306.3 C-107.5 308.6 -109.3 310.8 -111.1 313.1 C-118.8 322.8 -127 332.1 -135.4 341.2 C-137.7 343.7 -139.9 346.2 -142.1 348.7 C-147.2 354.4 -152.6 359.7 -158.1 365 C-161.6 368.5 -164.9 372.1 -168 376 C-169.1 377 -170.2 378 -171.4 378.9 C-175.5 382.4 -179.2 386.2 -183 390 C-187.2 394.2 -191.4 398.3 -195.9 402.2 C-198.2 404.2 -200.4 406.2 -202.6 408.3 C-208.1 413.4 -213.6 418.2 -219.4 422.9 C-221.9 425 -224.4 427.1 -226.8 429.4 C-231.3 433.4 -235.9 437.2 -240.7 440.8 C-244.5 443.8 -248.2 446.8 -251.8 449.9 C-258.6 455.6 -265.7 461 -272.8 466.3 C-275 468 -277.1 469.6 -279.2 471.3 C-288.6 478.5 -298.1 485.5 -307.8 492.4 C-309.9 494 -312.1 495.6 -314.3 497.1 C-325.6 505.4 -337.2 513.2 -348.9 520.9 C-352 523 -355 525 -358.1 527.1 C-371.3 535.9 -384.6 544.6 -398 553 C-398.8 553.5 -399.6 554 -400.5 554.6 C-442.2 580.8 -485.2 605.1 -528.7 628.3 C-534.2 631.2 -539.6 634.1 -545 637 C-545 637.9 -545 637.9 -545 638.7 C-544.6 733.1 -551.6 825.8 -664 1143 C-674.9 1141.2 -685.7 1138.7 -696.5 1136.2 C-698.6 1135.8 -700.7 1135.3 -702.8 1134.8 C-707.2 1133.8 -711.6 1132.8 -716.1 1131.8 C-721.6 1130.6 -727.2 1129.3 -732.8 1128.1 C-756.2 1122.8 -779.6 1117.5 -803 1112 C-802.7 1110.1 -802.4 1108.2 -802.1 1106.3 C-801.9 1105.3 -801.7 1104.2 -801.5 1103.1 C-801.1 1100.4 -800.6 1097.7 -800 1095 C-802 1094.3 -804 1093.7 -806 1093 C-806 1093.6 -806.1 1094.3 -806.1 1094.9 C-806.6 1100.2 -807.4 1105 -809 1110 C-814 1109.5 -818.3 1108.8 -823 1107 C-822.5 1101.1 -821.5 1095.7 -820 1090 C-822 1089.7 -824 1089.3 -826 1089 C-826.1 1089.8 -826.2 1090.6 -826.4 1091.4 C-826.5 1092.5 -826.7 1093.6 -826.9 1094.7 C-827 1095.7 -827.2 1096.8 -827.4 1097.9 C-828 1101 -828 1101 -830 1106 C-836.9 1104.5 -836.9 1104.5 -844 1103 C-843.5 1097.3 -842.9 1091.7 -842 1086 C-843.3 1085.7 -844.6 1085.3 -846 1085 C-849.6 1098.5 -852.3 1112.2 -855 1126 C-853 1126.3 -851 1126.7 -849 1127 C-849 1126.4 -848.9 1125.7 -848.9 1125.1 C-848.8 1124.2 -848.7 1123.3 -848.6 1122.4 C-848.5 1121.2 -848.5 1121.2 -848.4 1119.9 C-848 1117 -848 1117 -846 1110 C-841 1111 -836.1 1112 -831 1113 C-833 1126.4 -833 1126.4 -834 1130 C-832 1130.3 -830 1130.7 -828 1131 C-828 1130.4 -827.9 1129.9 -827.9 1129.3 C-827.4 1124.3 -826.5 1119.8 -825 1115 C-823.2 1115.3 -821.5 1115.6 -819.7 1115.9 C-818.7 1116.1 -817.7 1116.3 -816.7 1116.5 C-814 1117 -814 1117 -811 1118 C-811.5 1123.6 -812.3 1128.7 -814 1134 C-812 1134.3 -810 1134.7 -808 1135 C-807 1130 -806 1125.1 -805 1120 C-798 1120.6 -791.3 1121.9 -784.4 1123.5 C-783.2 1123.8 -782.1 1124 -781 1124.3 C-777.2 1125.1 -773.5 1125.9 -769.8 1126.8 C-767.2 1127.4 -764.6 1128 -761.9 1128.6 C-756.5 1129.8 -751 1131 -745.5 1132.3 C-737.8 1134 -730.2 1135.7 -722.6 1137.5 C-711.6 1139.9 -700.7 1142.4 -689.8 1144.9 C-688.1 1145.3 -688.1 1145.3 -686.3 1145.7 C-680.7 1146.9 -675.2 1148.2 -669.6 1149.5 C-652.9 1153.4 -636 1157 -619.2 1160.5 C-615.2 1161.3 -611.3 1162.1 -607.3 1162.9 C-600.5 1164.3 -593.7 1165.7 -586.9 1167.1 C-576.3 1169.3 -565.6 1171.5 -554.9 1173.8 C-552.2 1174.3 -549.5 1174.9 -546.8 1175.4 C-545 1175.8 -543.2 1176.2 -541.4 1176.6 C-535.1 1177.9 -528.8 1179.2 -522.4 1180.5 C-490.8 1187 -459.1 1193.6 -427.5 1200.2 C-423.8 1201 -420.1 1201.8 -416.5 1202.5 C-415.3 1202.8 -414.1 1203 -412.9 1203.3 C-410.6 1203.7 -408.2 1204.2 -405.9 1204.7 C-400.4 1205.9 -395 1207 -389.5 1208.1 C-380.1 1210.1 -370.8 1212.1 -361.4 1214 C-357.3 1214.8 -353.2 1215.6 -349.2 1216.5 C-347.2 1216.9 -345.3 1217.2 -343.4 1217.6 C-340.8 1218.2 -338.2 1218.7 -335.6 1219.2 C-334.9 1219.4 -334.1 1219.5 -333.3 1219.7 C-331.5 1220.1 -329.8 1220.5 -328 1221 C-327.7 1221.7 -327.3 1222.3 -327 1223 C-351.9 1218.9 -376.7 1214.6 -401.5 1210.2 C-406.4 1209.4 -411.3 1208.5 -416.1 1207.6 C-424.4 1206.2 -432.7 1204.7 -441 1203.2 C-460.4 1199.8 -479.8 1196.3 -499.2 1192.9 C-503.5 1192.1 -507.8 1191.4 -512.1 1190.6 C-538.7 1185.9 -565.2 1181.2 -591.8 1176.5 C-594.7 1176 -597.6 1175.5 -600.5 1175 C-612.9 1172.8 -625.3 1170.6 -637.6 1168.5 C-642.2 1167.7 -646.8 1166.9 -651.4 1166.1 C-653.4 1165.7 -655.5 1165.3 -657.6 1165 C-660.4 1164.5 -663.1 1164 -665.9 1163.5 C-666.7 1163.4 -667.5 1163.2 -668.3 1163.1 C-673.8 1162.1 -673.8 1162.1 -676 1161 C-676.3 1162 -676.3 1162 -676.7 1163 C-678.4 1167 -680.8 1170.3 -683.4 1173.8 C-684.2 1174.9 -684.2 1174.9 -685 1176.1 C-698.8 1195.3 -713.3 1213.8 -729.4 1231.2 C-731.8 1233.8 -734.2 1236.4 -736.6 1239.1 C-742.9 1246.2 -749.6 1253 -756.9 1259.2 C-759.4 1261.3 -761.7 1263.5 -764.1 1265.8 C-785.9 1285.6 -811 1302.2 -837 1316 C-838 1316.5 -838 1316.5 -839 1317 C-880.9 1339.1 -926.9 1352.1 -974 1356 C-975.3 1356.1 -976.5 1356.2 -977.8 1356.3 C-1031.8 1360.3 -1031.8 1360.3 -1054 1354 C-1053.4 1348.7 -1052.6 1343.6 -1051.4 1338.4 C-1051.2 1337.4 -1051.2 1337.4 -1051 1336.3 C-1050.5 1334 -1050 1331.7 -1049.5 1329.4 C-1049.1 1327.7 -1048.8 1326.1 -1048.4 1324.5 C-1047.7 1321.1 -1046.9 1317.7 -1046.2 1314.4 C-1045.2 1310 -1044.3 1305.7 -1043.4 1301.4 C-1042.6 1298.1 -1041.9 1294.7 -1041.2 1291.4 C-1040.8 1289.8 -1040.5 1288.2 -1040.1 1286.6 C-1039.7 1284.4 -1039.2 1282.1 -1038.7 1279.9 C-1038.4 1278.6 -1038.1 1277.4 -1037.8 1276.1 C-1037 1273 -1037 1273 -1035 1270 C-1030 1271 -1025.1 1272 -1020 1273 C-1019.7 1271.3 -1019.3 1269.7 -1019 1268 C-1020 1267.8 -1021 1267.6 -1022 1267.4 C-1023.3 1267.1 -1024.6 1266.8 -1025.9 1266.6 C-1027.2 1266.3 -1028.5 1266 -1029.8 1265.8 C-1033 1265 -1033 1265 -1034 1264 C-1033.9 1261.9 -1033.9 1261.9 -1033.7 1259.2 C-1033.6 1258 -1033.6 1258 -1033.4 1256.6 C-1033 1254 -1033 1254 -1031 1249 C-1023.1 1250.5 -1023.1 1250.5 -1015 1252 C-1014.7 1250.3 -1014.3 1248.7 -1014 1247 C-1019.3 1245.7 -1024.6 1244.4 -1030 1243 C-1029 1238.4 -1028 1233.8 -1027 1229 C-1021.2 1229.6 -1015.7 1230.7 -1010 1232 C-1009.7 1230 -1009.3 1228 -1009 1226 C-1009.8 1225.9 -1010.5 1225.8 -1011.3 1225.7 C-1019.9 1224.4 -1028.3 1222.7 -1036.8 1220.9 C-1038.1 1220.6 -1039.4 1220.3 -1040.7 1220 C-1043.8 1219.4 -1046.9 1218.7 -1050 1218 C-1050.3 1220 -1050.7 1222 -1051 1224 C-1049.3 1224.2 -1049.3 1224.2 -1047.5 1224.4 C-1043.2 1224.9 -1039.2 1225.9 -1035 1227 C-1035.5 1232 -1036.2 1236.3 -1038 1241 C-1043.4 1240.5 -1048.7 1240 -1054 1239 C-1054 1240.7 -1054 1242.3 -1054 1244 C-1053 1244.2 -1052 1244.4 -1051 1244.6 C-1049.7 1244.8 -1048.4 1245.1 -1047.1 1245.4 C-1045.8 1245.6 -1044.5 1245.9 -1043.2 1246.1 C-1041.6 1246.6 -1041.6 1246.6 -1040 1247 C-1038.5 1250.1 -1039.6 1252.3 -1040.4 1255.6 C-1040.7 1256.8 -1041 1258 -1041.3 1259.2 C-1041.7 1260.6 -1041.7 1260.6 -1042 1262 C-1053.5 1261.2 -1053.5 1261.2 -1059 1259 C-1059 1261 -1059 1263 -1059 1265 C-1051.6 1266.5 -1051.6 1266.5 -1044 1268 C-1045.5 1286.5 -1045.5 1286.5 -1049 1290 C-1049.2 1292.1 -1049.5 1294.2 -1049.7 1296.3 C-1050.3 1301 -1051.3 1305.7 -1052.3 1310.3 C-1052.6 1311.4 -1052.8 1312.4 -1053 1313.5 C-1053.5 1315.8 -1054 1318.1 -1054.5 1320.3 C-1055.2 1323.7 -1056 1327.1 -1056.7 1330.5 C-1057.2 1332.7 -1057.7 1334.9 -1058.1 1337.1 C-1058.5 1338.6 -1058.5 1338.6 -1058.8 1340.1 C-1059.8 1344.9 -1060.9 1349.6 -1062.1 1354.4 C-1065.8 1369.7 -1069 1385.1 -1072.2 1400.5 C-1073 1404.4 -1073.8 1408.3 -1074.6 1412.2 C-1076 1418.9 -1077.4 1425.6 -1078.8 1432.3 C-1081 1442.9 -1083.2 1453.5 -1085.3 1464.1 C-1085.5 1465 -1085.7 1465.9 -1085.9 1466.8 C-1086.7 1470.4 -1087.4 1474 -1088.2 1477.7 C-1089.3 1483.2 -1090.4 1488.7 -1091.6 1494.2 C-1096.9 1520 -1102.3 1545.7 -1107.6 1571.5 C-1107.8 1572.3 -1108 1573.2 -1108.2 1574 C-1110.5 1585.3 -1112.9 1596.5 -1115.2 1607.8 C-1116 1611.6 -1116.8 1615.5 -1117.6 1619.3 C-1117.8 1620.1 -1117.9 1620.8 -1118.1 1621.6 C-1118.9 1625.3 -1119.6 1629 -1120.4 1632.7 C-1120.5 1633.4 -1120.7 1634.1 -1120.8 1634.9 C-1121.1 1636.3 -1121.4 1637.7 -1121.7 1639.1 C-1122.7 1643.7 -1123.6 1648.3 -1124.6 1652.8 C-1124.8 1654 -1125.1 1655.2 -1125.3 1656.5 C-1125.8 1658.8 -1126.3 1661.1 -1126.8 1663.5 C-1128 1669 -1129.1 1674.5 -1130.2 1680.1 C-1130.8 1682.8 -1131.3 1685.5 -1131.9 1688.2 C-1132.2 1690.1 -1132.6 1692.1 -1133 1694 C-1133.2 1695.1 -1133.5 1696.3 -1133.7 1697.5 C-1133.9 1698.5 -1134.1 1699.5 -1134.3 1700.6 C-1135 1703 -1135 1703 -1137 1705 C-1135.7 1695.9 -1134.3 1686.8 -1132.7 1677.7 C-1132.5 1676.4 -1132.3 1675.2 -1132 1673.9 C-1131.4 1670.4 -1130.8 1666.9 -1130.2 1663.4 C-1129.5 1659.6 -1128.9 1655.8 -1128.2 1652.1 C-1126.9 1644.6 -1125.6 1637.2 -1124.3 1629.7 C-1123.2 1623.7 -1122.1 1617.6 -1121 1611.5 C-1120.9 1610.7 -1120.7 1609.8 -1120.6 1608.9 C-1120.3 1607.1 -1120 1605.4 -1119.6 1603.6 C-1115.6 1580.7 -1111.6 1557.9 -1107.5 1535.1 C-1107 1532 -1106.4 1528.9 -1105.9 1525.8 C-1095.6 1467.5 -1085.3 1409.3 -1075 1351 C-1075.7 1350.9 -1076.4 1350.9 -1077 1350.8 C-1077.9 1350.7 -1078.8 1350.6 -1079.7 1350.5 C-1080.6 1350.5 -1081.5 1350.4 -1082.4 1350.3 C-1086 1349.9 -1089.5 1349.2 -1093 1348.5 C-1093.7 1348.3 -1094.4 1348.2 -1095.2 1348 C-1097.5 1347.5 -1099.8 1347 -1102.2 1346.5 C-1103 1346.3 -1103.8 1346.1 -1104.6 1346 C-1121 1342.4 -1137 1338 -1153 1333 C-1154.2 1332.6 -1155.5 1332.2 -1156.8 1331.8 C-1203 1317.2 -1248 1297.3 -1290.2 1273.6 C-1293.2 1271.9 -1296.2 1270.2 -1299.2 1268.6 C-1312.1 1261.5 -1324.7 1254 -1337 1246 C-1335 1245 -1335 1245 -1332.2 1245.8 C-1330.3 1246.5 -1330.3 1246.5 -1328.5 1247.2 C-1327.1 1247.7 -1325.7 1248.2 -1324.4 1248.7 C-1323.3 1249.1 -1323.3 1249.1 -1322.2 1249.5 C-1273.3 1267.3 -1223.1 1280.9 -1171.6 1287.9 C-1170.9 1288 -1170.1 1288.1 -1169.4 1288.2 C-1164.3 1288.9 -1159.1 1289.5 -1154 1290 C-1152.7 1290.1 -1152.7 1290.1 -1151.3 1290.3 C-1133.3 1292.1 -1115.3 1292.2 -1097.2 1292.1 C-1093.4 1292.1 -1089.6 1292.1 -1085.9 1292.1 C-1078.6 1292.1 -1071.3 1292 -1064 1292 C-1063.7 1289.7 -1063.3 1287.4 -1063 1285 C-1063.6 1284.9 -1064.1 1284.8 -1064.7 1284.6 C-1088.1 1279 -1110.9 1266.4 -1130 1252 C-1130.6 1251.5 -1131.3 1251.1 -1131.9 1250.6 C-1148.9 1237.8 -1164.7 1222.4 -1177 1205 C-1177.5 1204.3 -1177.9 1203.7 -1178.4 1203 C-1197.2 1176.7 -1209.4 1147.6 -1216 1116 C-1216.2 1115.2 -1216.4 1114.4 -1216.5 1113.6 C-1219.3 1100.7 -1219.3 1087.6 -1219.4 1074.4 C-1219.4 1073.6 -1219.4 1072.7 -1219.4 1071.8 C-1219.5 1059 -1218.2 1046.7 -1216 1034 C-1208.9 1035 -1201.9 1036.1 -1195 1038 C-1195.3 1039.9 -1195.6 1041.8 -1195.9 1043.7 C-1196.1 1044.7 -1196.3 1045.8 -1196.5 1046.9 C-1196.9 1049.6 -1197.4 1052.3 -1198 1055 C-1196.3 1055 -1194.7 1055 -1193 1055 C-1191.7 1049.7 -1190.4 1044.4 -1189 1039 C-1181.6 1040.5 -1181.6 1040.5 -1174 1042 C-1174.6 1047.9 -1175.4 1053.3 -1177 1059 C-1175 1059.3 -1173 1059.7 -1171 1060 C-1170.9 1059.1 -1170.7 1058.2 -1170.6 1057.3 C-1170.4 1056.1 -1170.2 1054.9 -1170.1 1053.7 C-1169.9 1052.5 -1169.7 1051.3 -1169.5 1050.1 C-1169 1047 -1169 1047 -1168 1044 C-1166.4 1044.1 -1164.8 1044.3 -1163.2 1044.4 C-1162.4 1044.5 -1161.5 1044.6 -1160.6 1044.7 C-1158.3 1045 -1156.2 1045.4 -1154 1046 C-1154.1 1047.7 -1154.3 1049.5 -1154.4 1051.2 C-1154.5 1052.2 -1154.6 1053.1 -1154.7 1054.1 C-1155 1056.8 -1155.4 1059.4 -1156 1062 C-1154.3 1062.3 -1152.7 1062.7 -1151 1063 C-1150.8 1061.9 -1150.5 1060.7 -1150.3 1059.5 C-1149.4 1055.3 -1148.5 1051.1 -1147.6 1046.9 C-1147.3 1045 -1146.9 1043.2 -1146.5 1041.4 C-1145.9 1038.8 -1145.4 1036.1 -1144.8 1033.5 C-1144.7 1032.7 -1144.5 1031.9 -1144.3 1031 C-1143.1 1025.2 -1143.1 1025.2 -1142 1023 C-1144 1023 -1146 1023 -1148 1023 C-1149 1028 -1150 1032.9 -1151 1038 C-1162.3 1037.1 -1162.3 1037.1 -1166 1036 C-1165.7 1033.9 -1165.4 1031.8 -1165.1 1029.8 C-1164.8 1028 -1164.8 1028 -1164.5 1026.2 C-1164.1 1023.8 -1163.7 1021.4 -1163 1019 C-1165 1018.7 -1167 1018.3 -1169 1018 C-1169 1018.6 -1169.1 1019.1 -1169.1 1019.7 C-1169.6 1024.7 -1170.5 1029.2 -1172 1034 C-1182.6 1033 -1182.6 1033 -1187 1032 C-1186.4 1025.9 -1185.5 1020 -1184 1014 C-1185.7 1014 -1187.3 1014 -1189 1014 C-1190.3 1019.3 -1191.6 1024.6 -1193 1030 C-1199.8 1029.4 -1206.3 1028.5 -1213 1027 C-1214 1023.8 -1214 1022 -1213 1018.8 C-1212.8 1018 -1212.5 1017.2 -1212.3 1016.4 C-1212 1015.5 -1211.7 1014.6 -1211.4 1013.8 C-1211.2 1012.9 -1210.9 1012 -1210.6 1011 C-1206.5 998 -1201.6 985.7 -1195.6 973.4 C-1194 970.1 -1194 970.1 -1193 967 C-1205.1 975.4 -1217 984.2 -1228.7 993.2 C-1230.7 994.7 -1232.7 996.3 -1234.7 997.8 C-1235.2 998.2 -1235.8 998.6 -1236.3 999.1 C-1237.8 1000.2 -1239.4 1001.4 -1240.9 1002.5 C-1243.3 1004.4 -1245.5 1006.3 -1247.8 1008.3 C-1248.4 1008.9 -1249.1 1009.4 -1249.7 1010 C-1251 1011.1 -1252.2 1012.2 -1253.5 1013.3 C-1255.9 1015.4 -1257.8 1017 -1261.1 1017.1 C-1267.8 1016.2 -1274.3 1015.1 -1280.9 1013.7 C-1282 1013.5 -1283.1 1013.3 -1284.3 1013 C-1288.1 1012.3 -1291.8 1011.5 -1295.6 1010.8 C-1298.2 1010.2 -1300.8 1009.7 -1303.4 1009.2 C-1308.9 1008.1 -1314.4 1006.9 -1319.9 1005.8 C-1326.2 1004.6 -1332.5 1003.3 -1338.8 1002 C-1344.9 1000.8 -1351 999.5 -1357.1 998.3 C-1359.7 997.8 -1362.3 997.3 -1364.9 996.7 C-1368.5 996 -1372.1 995.3 -1375.8 994.5 C-1376.8 994.3 -1377.9 994.1 -1378.9 993.9 C-1388.3 992 -1397.7 989.9 -1407 987.5 C-1413.3 985.9 -1419.7 984.5 -1426.2 983.2 C-1427.4 983 -1428.7 982.7 -1430 982.4 C-1432.7 981.9 -1435.4 981.3 -1438.1 980.7 C-1442.4 979.9 -1446.7 979 -1451 978.1 C-1459.3 976.4 -1467.6 974.6 -1475.9 972.9 C-1486.5 970.7 -1497.2 968.5 -1507.8 966.3 C-1512 965.4 -1516.3 964.6 -1520.5 963.7 C-1522.5 963.3 -1524.6 962.9 -1526.6 962.4 C-1529 961.9 -1531.4 961.4 -1533.9 960.9 C-1539.6 959.7 -1545.3 958.5 -1551 957 C-1551 956.7 -1551 956.3 -1551 956 C-1542.5 956.6 -1534.1 957.8 -1525.6 959.2 C-1524.2 959.5 -1522.8 959.7 -1521.4 959.9 C-1517.6 960.5 -1513.8 961.1 -1510 961.7 C-1506 962.4 -1502.1 963 -1498.1 963.7 C-1490.6 964.9 -1483 966.1 -1475.5 967.3 C-1467 968.7 -1458.4 970.1 -1449.8 971.5 C-1432.2 974.3 -1414.6 977.2 -1397 980 C-1394.6 977 -1392.2 973.9 -1390 970.7 C-1389.5 969.9 -1388.9 969.1 -1388.3 968.3 C-1387.7 967.5 -1387.2 966.6 -1386.6 965.8 C-1371.1 943.5 -1354 922.5 -1335.5 902.6 C-1333.9 900.8 -1332.2 899.1 -1330.6 897.3 C-1313.6 879 -1313.6 879 -1304.4 871.1 C-1301.8 868.8 -1299.2 866.4 -1296.7 864 C-1290.8 858.5 -1285 853.2 -1278.7 848.2 C-1276.2 846.2 -1273.7 844.1 -1271.3 842 C-1264.9 836.5 -1258.4 831.3 -1251.7 826.3 C-1249.9 824.9 -1248.1 823.6 -1246.3 822.2 C-1229.4 809.3 -1211.9 797.4 -1194 786 C-1193.2 785.5 -1192.4 785 -1191.6 784.5 C-1179.6 776.8 -1167.4 769.3 -1155.1 761.9 C-1151.9 759.9 -1148.6 757.9 -1145.3 755.9 C-1130.5 746.9 -1115.5 738 -1100.5 729.2 C-1094.3 725.6 -1088.2 722 -1082 718.4 C-1061.2 706.1 -1040.2 694 -1019.3 681.9 C-1013.9 678.8 -1008.4 675.6 -1003 672.5 C-1000.8 671.2 -998.7 670 -996.5 668.8 C-994.9 667.8 -994.9 667.8 -993.2 666.9 C-990 665 -986.8 663.1 -983.5 661.2 C-982.4 660.6 -981.4 660 -980.3 659.4 C-978.1 658.1 -975.9 656.9 -973.7 655.6 C-968.4 652.5 -963 649.4 -957.6 646.3 C-946.6 639.9 -935.6 633.6 -924.6 627.3 C-923.4 626.6 -922.2 625.9 -920.9 625.2 C-919.2 624.2 -917.5 623.2 -915.8 622.3 C-914.8 621.7 -913.8 621.1 -912.8 620.6 C-909.9 619 -907 617.5 -904 616 C-904.7 622.9 -906.1 629.6 -907.6 636.3 C-908 638.2 -908 638.2 -908.4 640 C-909.2 643.4 -909.9 646.7 -910.7 650.1 C-911.5 653.6 -912.2 657.2 -913 660.8 C-914.4 666.9 -915.7 673 -917.1 679 C-918.4 685.1 -919.8 691.2 -921.1 697.3 C-921.3 698.4 -921.3 698.4 -921.6 699.5 C-922.4 703.2 -923.2 706.9 -924 710.6 C-925.7 718.1 -927.3 725.5 -929 732.9 C-929.7 735.9 -930.4 738.9 -931.1 741.9 C-931.2 742.6 -931.4 743.4 -931.6 744.1 C-933.8 754.1 -935.8 764.1 -937.7 774.2 C-938.7 779.6 -939.7 785 -940.8 790.4 C-941.5 794 -942.2 797.7 -942.8 801.3 C-946.8 826 -946.8 826 -958 834.2 C-967.8 840.4 -978.2 844.6 -989.4 847.6 C-993.7 848.8 -997.2 850.6 -1001 853 C-999.7 853 -998.5 853.1 -997.2 853.1 C-984 853.6 -971.1 855 -958 857 C-956.9 860.2 -957 861.1 -957.8 864.2 C-958.1 865.4 -958.1 865.4 -958.3 866.7 C-958.5 867.5 -958.7 868.3 -958.9 869.2 C-959.1 870 -959.3 870.9 -959.5 871.7 C-960 873.8 -960.5 875.9 -961 878 C-967.2 877.5 -973 876.7 -979 875 C-979.3 877 -979.7 879 -980 881 C-979.2 881.1 -978.4 881.3 -977.6 881.4 C-976.5 881.6 -975.4 881.8 -974.3 881.9 C-973.3 882.1 -972.2 882.3 -971.1 882.5 C-968.4 882.9 -965.7 883.4 -963 884 C-963.3 885.9 -963.6 887.9 -963.9 889.8 C-964.1 890.9 -964.3 892 -964.5 893.1 C-965 896 -965 896 -966 899 C-973.9 897.5 -973.9 897.5 -982 896 C-982.7 898 -983.3 900 -984 902 C-983.3 902 -982.7 902.1 -982 902.1 C-977.1 902.6 -972.7 903.2 -968 905 C-968.1 906.4 -968.2 907.8 -968.4 909.1 C-968.4 909.9 -968.5 910.7 -968.6 911.4 C-969 914 -969 914 -971 920 C-978.9 918.5 -978.9 918.5 -987 917 C-987.7 919 -988.3 921 -989 923 C-988.5 923 -987.9 923.1 -987.3 923.1 C-979.4 923.8 -971.8 925.4 -964 927.1 C-961.4 927.6 -958.8 928.2 -956.2 928.7 C-955 929 -953.9 929.2 -952.7 929.5 C-950.1 930.1 -950.1 930.1 -948 930 C-947.7 928.4 -947.3 926.7 -947 925 C-954.9 923.5 -954.9 923.5 -963 922 C-961.1 910.4 -961.1 910.4 -960 907 C-954.1 907.5 -948.6 908.2 -943 910 C-942.7 908 -942.3 906 -942 904 C-949.9 902.5 -949.9 902.5 -958 901 C-957.5 895.4 -956.8 891.4 -955 886 C-947.1 887.5 -947.1 887.5 -939 889 C-938.7 887 -938.3 885 -938 883 C-938.6 883 -939.1 882.9 -939.7 882.9 C-940.5 882.8 -941.3 882.7 -942.1 882.6 C-942.8 882.6 -943.6 882.5 -944.3 882.4 C-947.6 881.9 -950.8 880.9 -954 880 C-952.7 873.4 -951.4 866.8 -950 860 C-942 860.9 -935.7 862.4 -928.2 864.9 C-926.5 865.5 -926.5 865.5 -924.7 866.2 C-894.9 876.5 -868.6 893.1 -846 915 C-845.4 915.5 -844.9 916.1 -844.3 916.6 C-835.7 924.8 -828 933.4 -821 943 C-820.5 943.7 -820 944.3 -819.6 945 C-791.5 984.4 -777.6 1030.1 -777.9 1078.2 C-777.9 1079.7 -777.9 1081.1 -778 1082.6 C-778 1086 -778 1089.5 -778 1093 C-767.8 1071.3 -758.4 1049.2 -750.8 1026.4 C-750.3 1024.8 -749.7 1023.2 -749.2 1021.6 C-735.6 982.5 -727.7 941.1 -723.2 900 C-723 898 -722.8 896 -722.5 894 C-720.2 873.4 -719.7 852.8 -719.7 832 C-719.7 830 -719.7 828.1 -719.7 826.1 C-719.6 802 -720.8 777.9 -724 754 C-724.2 752.7 -724.3 751.4 -724.5 750.1 C-725.4 736.7 -725.4 736.7 -729 724 C-730.7 724.8 -730.7 724.8 -732.4 725.5 C-737.7 727.9 -742.9 730.3 -748.2 732.7 C-749.1 733.1 -750.1 733.6 -751.1 734 C-762.7 739.3 -774.3 744.5 -785.9 749.7 C-811.1 761 -836.2 772.5 -861.2 784.2 C-864.5 785.7 -867.7 787.3 -871 788.8 C-874.5 790.4 -878 792.1 -881.4 793.7 C-882.1 794 -882.8 794.3 -883.5 794.7 C-892.3 798.8 -901 803 -909.7 807.3 C-910.6 807.7 -911.5 808.2 -912.4 808.6 C-916.8 810.8 -921.2 813 -925.6 815.1 C-927.2 815.9 -928.8 816.7 -930.4 817.5 C-931.1 817.9 -931.8 818.2 -932.6 818.6 C-937.7 821.1 -937.7 821.1 -941 820 C-924.4 740 -907.8 659.9 -891.2 579.9 C-887.2 560.9 -883.3 541.9 -879.3 522.9 C-878.1 517 -876.8 511 -875.6 505 C-875.4 504.2 -875.3 503.3 -875.1 502.5 C-874.2 498.2 -873.3 494 -872.4 489.8 C-870.7 481.5 -869 473.3 -867.3 465 C-865.8 458 -864.4 451 -862.9 444 C-862.2 440.4 -861.4 436.9 -860.7 433.3 C-856.5 413.2 -852.3 393.1 -848 373 C-847.7 373 -847.3 373 -847 373 C-847.6 383.9 -849.5 394.6 -851.5 405.4 C-851.8 407.4 -852.2 409.5 -852.6 411.5 C-853.5 417 -854.5 422.5 -855.5 428.1 C-856.5 433.8 -857.6 439.6 -858.6 445.4 C-860.5 456.4 -862.5 467.4 -864.4 478.3 C-866.7 490.8 -868.9 503.2 -871.1 515.7 C-874.3 534 -877.6 552.4 -880.9 570.7 C-881.2 572.7 -881.6 574.7 -881.9 576.7 C-885.3 595.8 -885.3 595.8 -887 605 C-879.1 601.2 -871.4 597 -863.9 592.6 C-861.8 591.3 -859.7 590.1 -857.5 588.8 C-856.5 588.2 -855.4 587.6 -854.3 586.9 C-848.9 583.8 -843.5 580.7 -838.1 577.6 C-837 576.9 -836 576.3 -834.9 575.7 C-832.7 574.4 -830.5 573.2 -828.3 571.9 C-822.9 568.8 -817.4 565.6 -812 562.5 C-809.8 561.2 -807.7 560 -805.5 558.8 C-803.9 557.8 -803.9 557.8 -802.2 556.9 C-792.5 551.3 -792.5 551.3 -789.2 549.4 C-787.1 548.1 -784.9 546.9 -782.8 545.6 C-777.3 542.5 -771.9 539.4 -766.4 536.2 C-744.1 523.3 -721.8 510.3 -699.6 497.3 C-694.7 494.4 -689.8 491.5 -684.9 488.7 C-681.9 486.9 -678.9 485.1 -675.9 483.4 C-670.4 480.2 -665 477 -659.5 473.8 C-646.2 466 -632.9 458.2 -619.7 450.1 C-612.4 445.6 -605 441.2 -597.5 437 C-587.6 431.4 -577.9 425.5 -568.2 419.6 C-567.6 419.2 -567 418.9 -566.4 418.5 C-565.5 417.9 -565.5 417.9 -564.5 417.4 C-558.3 413.6 -552.1 409.9 -545.9 406.1 C-523.2 392.6 -500.7 378.8 -478.2 365 C-475 363 -471.7 361 -468.4 359 C-448.3 346.6 -428.3 334.1 -408.3 321.4 C-406 320 -403.7 318.5 -401.4 317.1 C-390.2 310 -379.1 303 -367.9 295.9 C-364.9 294 -362 292.1 -359 290.2 C-347.4 282.8 -335.9 275.3 -324.4 267.6 C-317.1 262.7 -309.7 257.8 -302.3 253 C-275.1 235.1 -275.1 235.1 -248.2 216.6 C-244.7 214.1 -241.2 211.7 -237.6 209.2 C-229.4 203.6 -221.2 197.8 -213 192 C-212.1 191.4 -212.1 191.4 -211.2 190.7 C-207.1 187.8 -203.1 184.9 -199 182 C-198.3 181.5 -197.6 181 -197 180.5 C-179.7 168.2 -162.7 155.6 -146 142.6 C-143.1 140.3 -140.3 138.1 -137.4 135.9 C-131.1 131.1 -124.9 126.1 -118.7 121 C-115.8 118.6 -112.8 116.2 -109.8 113.9 C-104.4 109.5 -99 105 -93.7 100.5 C-92 99 -90.3 97.5 -88.5 96.1 C-81 89.7 -73.7 83.1 -66.5 76.4 C-64.1 74.2 -61.6 72 -59.2 69.8 C-54.2 65.2 -49.4 60.5 -44.7 55.8 C-43.7 54.8 -43.7 54.8 -42.7 53.8 C-38.3 49.4 -34.1 44.8 -30 40 C-29 38.9 -28.1 37.8 -27.1 36.8 C-17 25.3 -8.3 12.8 0 0 Z M-1101.2 972.2 C-1129 1000.3 -1143.3 1037.5 -1143.2 1076.9 C-1142.8 1114.1 -1127.9 1148.5 -1102 1175 C-1101.2 1175.9 -1100.3 1176.8 -1099.5 1177.8 C-1088.7 1189.1 -1075.3 1198.5 -1061 1205 C-1060.3 1205 -1059.7 1205 -1059 1205 C-1056.7 1193.5 -1054.4 1181.9 -1052 1170 C-1055.6 1167.7 -1059.3 1165.4 -1063 1163 C-1085.6 1146.2 -1101.6 1121.9 -1106.6 1094 C-1107.6 1086.7 -1108.3 1079.3 -1109 1072 C-1108.1 1072.2 -1107.2 1072.4 -1106.3 1072.6 C-1103.1 1073.2 -1099.8 1073.9 -1096.5 1074.6 C-1095.1 1074.9 -1093.7 1075.1 -1092.3 1075.4 C-1090.2 1075.9 -1088.2 1076.3 -1086.1 1076.7 C-1084.9 1076.9 -1083.7 1077.2 -1082.4 1077.4 C-1079.2 1078 -1076.3 1078.1 -1073 1078 C-1072 1073.4 -1071 1068.8 -1070 1064.2 C-1069.6 1062.6 -1069.3 1061 -1068.9 1059.5 C-1068.4 1057.2 -1067.9 1055 -1067.4 1052.7 C-1067.3 1052 -1067.1 1051.3 -1067 1050.6 C-1066.1 1046.5 -1066.1 1044.3 -1067 1040 C-1083.3 1036.5 -1083.3 1036.5 -1100 1033 C-1086.3 1004.3 -1066.6 982.4 -1035.9 971.5 C-1028.3 969 -1020.7 967.2 -1012.7 966.1 C-1009.8 965.3 -1009.8 965.3 -1008.8 962.7 C-1008.5 961.4 -1008.3 960.2 -1008 959 C-1007.8 958.1 -1007.6 957.2 -1007.4 956.3 C-1006.7 953.2 -1006 950.1 -1005.4 946.9 C-1005.1 945.9 -1004.9 944.8 -1004.7 943.7 C-1004.5 942.6 -1004.2 941.6 -1004 940.5 C-1003.8 939.6 -1003.6 938.6 -1003.4 937.7 C-1003 935.1 -1002.9 932.6 -1003 930 C-1040 930 -1074.8 947.1 -1101.2 972.2 Z M-989 931 C-992.8 947.9 -996.4 964.9 -999.9 981.9 C-1000.1 982.6 -1000.2 983.4 -1000.4 984.1 C-1000.8 986.3 -1001.3 988.4 -1001.7 990.5 C-1002 991.7 -1002.2 992.9 -1002.5 994.2 C-1003.1 996.8 -1003.1 996.8 -1003 999 C-998.6 1000 -994.1 1001 -989.7 1001.9 C-988.1 1002.3 -986.6 1002.6 -985.1 1002.9 C-982.9 1003.4 -980.8 1003.9 -978.6 1004.4 C-977.9 1004.5 -977.2 1004.7 -976.6 1004.8 C-972.7 1005.7 -968.9 1006.4 -965 1007 C-964 1002.5 -963 998 -962 993.4 C-961.7 991.9 -961.3 990.4 -961 988.8 C-960.5 986.6 -960 984.4 -959.5 982.2 C-959.4 981.5 -959.2 980.8 -959.1 980.1 C-958.3 976.6 -958.3 976.6 -958 973 C-929.4 986.8 -907.7 1005.9 -896.3 1036.2 C-886.6 1064.2 -887.2 1095.4 -900 1122.3 C-904.4 1131.1 -909.3 1138.8 -916 1146 C-916.7 1146.8 -916.7 1146.8 -917.5 1147.6 C-924.1 1154.6 -930.8 1160.9 -939 1166 C-939.9 1166.6 -940.7 1167.1 -941.6 1167.7 C-960 1179.3 -980.6 1183.2 -1002 1184 C-1001.8 1183.1 -1001.5 1182.2 -1001.3 1181.2 C-998.3 1169.9 -996.1 1158.5 -994 1147 C-998.3 1146 -1002.5 1145.1 -1006.8 1144.1 C-1008.6 1143.7 -1008.6 1143.7 -1010.4 1143.3 C-1017.6 1141.7 -1024.8 1140.3 -1032 1139 C-1034.2 1147.6 -1036.2 1156.3 -1037.9 1165.1 C-1038.2 1166.4 -1038.4 1167.7 -1038.7 1169 C-1039.4 1172.4 -1040.1 1175.8 -1040.8 1179.2 C-1041.5 1182.7 -1042.2 1186.1 -1042.9 1189.6 C-1044.3 1196.4 -1045.6 1203.2 -1047 1210 C-1041.4 1212.5 -1041.4 1212.5 -1035.6 1214.1 C-1034.9 1214.3 -1034.1 1214.5 -1033.3 1214.6 C-1032.6 1214.8 -1031.8 1215 -1031 1215.1 C-1030.2 1215.3 -1029.5 1215.5 -1028.7 1215.6 C-1007.4 1220.2 -982.9 1220.1 -962 1214 C-960.9 1213.7 -960.9 1213.7 -959.7 1213.4 C-948.5 1210.1 -938.2 1205.6 -928 1200 C-926.6 1199.2 -926.6 1199.2 -925.2 1198.5 C-894.4 1180.8 -869.7 1150 -860.3 1115.5 C-854.2 1091.8 -851.7 1066 -858 1042 C-858.2 1041.2 -858.4 1040.5 -858.6 1039.7 C-864.9 1014.9 -876.9 993.9 -894 975 C-894.8 974.1 -895.6 973.3 -896.4 972.4 C-917.1 950.6 -944.8 937.7 -974 932 C-975 931.8 -975.9 931.6 -976.9 931.4 C-981 930.9 -984.9 930.9 -989 931 Z M-993 1019 C-995 1028.6 -997 1038.1 -999 1048 C-1002 1048.7 -1004.9 1049.3 -1008 1050 C-1014.3 1053 -1018.4 1057.1 -1022 1063 C-1028.9 1062.3 -1035.7 1061.2 -1042.6 1059.9 C-1043.6 1059.8 -1044.6 1059.6 -1045.6 1059.4 C-1048.1 1058.9 -1050.5 1058.5 -1053 1058 C-1053.3 1061.3 -1053.7 1064.6 -1054 1068 C-1039.2 1072.2 -1039.2 1072.2 -1024 1074 C-1023.9 1074.6 -1023.9 1075.3 -1023.8 1075.9 C-1022.5 1084.1 -1019.3 1089 -1013.2 1094.5 C-1011.2 1096.2 -1011.2 1096.2 -1009 1096 C-1009.2 1096.9 -1009.4 1097.7 -1009.6 1098.6 C-1010.2 1101.8 -1010.9 1105 -1011.6 1108.2 C-1011.9 1109.6 -1012.1 1111 -1012.4 1112.4 C-1012.9 1114.4 -1013.3 1116.4 -1013.7 1118.4 C-1014.1 1120.2 -1014.1 1120.2 -1014.4 1122 C-1015.1 1125 -1015.1 1125 -1015 1128 C-1011.7 1128.7 -1008.4 1129.3 -1005 1130 C-1004.1 1126.1 -1003.3 1122.1 -1002.4 1118.2 C-1002.1 1116.9 -1001.9 1115.5 -1001.6 1114.2 C-1001.1 1112.3 -1000.7 1110.3 -1000.3 1108.4 C-999.9 1106.7 -999.9 1106.7 -999.6 1104.9 C-998.9 1102 -998.9 1102 -999 1099 C-998.1 1098.9 -998.1 1098.9 -997.1 1098.8 C-990.4 1097.7 -985.1 1095.6 -980 1091 C-978.6 1089 -977.3 1087 -976 1085 C-971.8 1085.8 -967.5 1086.6 -963.3 1087.4 C-962.1 1087.7 -960.9 1087.9 -959.7 1088.1 C-958.5 1088.4 -957.4 1088.6 -956.2 1088.8 C-954.6 1089.1 -954.6 1089.1 -953 1089.4 C-950.3 1089.9 -947.7 1090.5 -945 1091 C-944.3 1087.7 -943.7 1084.4 -943 1081 C-953 1078.5 -962.9 1076.1 -973 1074 C-973.1 1073.4 -973.2 1072.9 -973.3 1072.3 C-974.9 1063.5 -978.6 1057.7 -985.4 1052 C-987 1050.8 -987 1050.8 -989 1051 C-988.8 1050.3 -988.6 1049.6 -988.4 1048.9 C-987 1043.1 -985.6 1037.3 -984.2 1031.6 C-984 1030.4 -983.7 1029.3 -983.5 1028.1 C-983 1025 -983.2 1023 -984 1020 C-987 1019.7 -989.9 1019.3 -993 1019 Z " fill="#648cf5" transform="translate(1555,4)" style=""/>
<path d="M0 0 C0.7 0 1.3 0 2 0 C0.3 63.8 -15.2 128.5 -45 185 C-45.4 185.7 -45.8 186.5 -46.2 187.3 C-58.6 211.1 -74.3 232.8 -92 253 C-92.6 253.7 -93.3 254.4 -93.9 255.2 C-99.6 261.6 -105.6 267.8 -111.8 273.9 C-113.4 275.6 -115 277.2 -116.6 278.8 C-123.1 285.3 -129.8 291.3 -137 297 C-138.1 297.9 -139.2 298.9 -140.2 299.8 C-171.8 327.2 -209.1 349.6 -246.1 369 C-247.5 369.7 -248.9 370.5 -250.3 371.2 C-264.7 378.8 -279.2 386.2 -293.7 393.4 C-297 395.1 -300.3 396.7 -303.6 398.4 C-316.8 405 -330.1 411.4 -343.5 417.8 C-371 430.9 -398.4 444.1 -425 459 C-425.9 459.5 -426.9 460 -427.8 460.6 C-460.4 478.8 -490.7 500.1 -518.2 525.5 C-520 527 -520 527 -521 527 C-522 507.5 -518.2 487.7 -513 469 C-512.8 468.2 -512.5 467.4 -512.3 466.5 C-501.7 429 -479.5 395 -454 366 C-453.4 365.3 -452.7 364.5 -452.1 363.8 C-450.4 361.8 -448.7 359.9 -447 358 C-446.4 357.3 -445.8 356.6 -445.2 355.9 C-439 348.9 -432.4 342.3 -425.8 335.7 C-423.9 333.8 -422.1 331.9 -420.2 330.1 C-414.3 324.2 -408.4 318.4 -402 313 C-400.8 311.9 -399.5 310.9 -398.3 309.8 C-391 303.4 -383.6 297.1 -376 291 C-374.9 290.1 -373.7 289.1 -372.6 288.2 C-364.2 281.5 -355.7 275 -347.1 268.6 C-344.9 267 -342.8 265.3 -340.6 263.7 C-317.9 246.8 -294.4 231.2 -270.8 215.5 C-267.2 213.1 -263.5 210.7 -259.9 208.3 C-252.4 203.2 -244.8 198.2 -237.1 193.4 C-235 192 -232.8 190.6 -230.6 189.2 C-229.5 188.5 -228.4 187.8 -227.3 187.1 C-221.9 183.6 -216.4 180.2 -211 176.7 C-209.9 176 -208.9 175.3 -207.8 174.6 C-201.4 170.5 -194.9 166.4 -188.5 162.2 C-184.6 159.7 -180.8 157.2 -176.9 154.8 C-162.7 145.8 -148.7 136.5 -134.8 127.1 C-133.9 126.5 -133 125.9 -132 125.2 C-121.2 118 -110.5 110.6 -100 103 C-99.1 102.4 -98.3 101.8 -97.4 101.1 C-86.9 93.5 -76.7 85.7 -66.7 77.4 C-65.2 76.1 -63.6 74.9 -62 73.6 C-54.7 67.7 -47.8 61.5 -41 55 C-40.4 54.4 -39.8 53.8 -39.1 53.2 C-22.8 37.6 -9.6 20.5 0 0 Z " fill="#648cf5" transform="translate(1556,357)" style=""/>
<path d="M0 0 C0.3 0 0.7 0 1 0 C-0.9 28.9 -6.9 57.5 -16 85 C-16.3 85.8 -16.5 86.7 -16.8 87.5 C-34.9 142.6 -71.2 194.4 -117 230 C-118.1 230.9 -119.3 231.9 -120.4 232.9 C-146.2 254.5 -175.3 271.4 -205 287 C-206.3 287.7 -206.3 287.7 -207.7 288.4 C-257.8 314.6 -312 332.6 -365.2 351.1 C-404.9 364.8 -404.9 364.8 -444 380 C-445 380.4 -446.1 380.9 -447.2 381.3 C-458.8 386.2 -470.2 391.5 -481.4 397.2 C-482.4 397.7 -483.3 398.2 -484.2 398.7 C-489.8 401.6 -494.9 404.9 -500 408.7 C-502 410 -502 410 -504 410 C-497.2 370.1 -482.1 333.8 -457 302 C-456.4 301.2 -455.7 300.3 -455.1 299.5 C-441.5 282.1 -425.4 265.5 -408 252 C-406.1 250.4 -404.3 248.8 -402.4 247.2 C-373 222.7 -338.9 202.8 -305 185 C-303.5 184.2 -303.5 184.2 -301.9 183.4 C-276.4 169.9 -250.6 156.8 -224.3 144.8 C-213.5 139.8 -202.9 134.7 -192.2 129.5 C-191.6 129.2 -190.9 128.9 -190.3 128.5 C-189.7 128.2 -189 127.9 -188.4 127.6 C-183.8 125.4 -179.3 123.2 -174.7 121.1 C-148.4 108.6 -122.1 95.8 -97 81 C-95.3 80 -93.6 79 -91.8 78 C-67.2 63.6 -44.1 46.9 -23.4 27.3 C-22.3 26.3 -21.1 25.2 -20 24.2 C-14.9 19.4 -10.8 13.8 -6.6 8.3 C-1.8 2.2 -1.8 2.2 0 0 Z " fill="#648cf5" transform="translate(1501,684)" style=""/>
<path d="M0 0 C8.7 1.3 17.3 2.8 26 4.5 C27.2 4.8 28.4 5 29.7 5.3 C33 5.9 36.3 6.6 39.6 7.3 C43 7.9 46.5 8.6 50 9.3 C56.5 10.6 63.1 12 69.6 13.3 C77.1 14.8 84.5 16.3 92 17.8 C107.3 20.8 122.7 23.9 138 27 C137.1 28.1 136.1 29.2 135.2 30.3 C134.7 30.9 134.2 31.5 133.6 32.2 C131 35.1 128.1 37.5 125.1 39.9 C120.5 43.8 116.1 47.8 111.9 52.1 C110.2 53.8 108.4 55.4 106.5 57 C101.3 61.5 96.4 66.4 91.5 71.3 C89.9 72.9 88.3 74.5 86.8 76.1 C81.3 81.6 76 87.1 71 93 C69.5 94.6 68.1 96.2 66.6 97.8 C61.9 103.1 57.4 108.5 53 114 C52.1 115.1 51.1 116.3 50.2 117.4 C34.1 137.1 19.9 158.2 7 180.2 C6 182 5 183.7 3.9 185.5 C-12.3 213 -24.3 243.5 -33.2 274 C-33.7 275.8 -33.7 275.8 -34.2 277.5 C-34.5 278.6 -34.8 279.6 -35.1 280.7 C-36 283 -36 283 -38 284 C-49 253.2 -54.2 222.2 -54.2 189.5 C-54.3 188.7 -54.3 188 -54.3 187.2 C-54.2 172 -53.1 157.1 -51 142 C-50.9 141 -50.7 140 -50.6 139 C-43.7 90.4 -25.4 42 0 0 Z " fill="#648cf5" transform="translate(149,1000)" style=""/>
<path d="M0 0 C1.9 3.9 2.2 7 2.1 11.3 C2.1 12.4 2.1 13.4 2.1 14.6 C2 15.4 2 16.2 2 17 C4.2 16.2 4.2 16.2 4.7 14.1 C5 13.3 5.2 12.5 5.4 11.7 C6.5 8.3 7.5 5.7 10 3 C14.6 3.7 16.5 6.2 19.4 9.7 C21.8 13.2 22.5 16.8 23 21 C19.2 22.8 16.3 23.2 12.2 23.1 C10.7 23.1 10.7 23.1 9.2 23.1 C8.5 23 7.8 23 7 23 C7 24 7 25 7 26 C10.3 26.7 13.6 27.3 17 28 C17.5 29.5 17.5 29.5 18 31 C18.7 31 19.3 31 20 31 C18.3 36.2 15.9 37.9 11.4 40.8 C8.2 42.4 5.6 42.8 2 43 C-0.3 39.4 -0.1 36.9 0.4 32.8 C0.5 31.1 0.5 31.1 0.7 29.5 C0.8 28.7 0.9 27.8 1 27 C-2.8 29.6 -2.9 31.5 -4.1 35.8 C-5.2 38.5 -6.6 39.5 -9 41 C-14.3 36.8 -18 33.6 -20 27 C-20 25.7 -20 24.4 -20 23 C-14.7 20.7 -10.6 21.1 -5 22 C-5 21.3 -5 20.7 -5 20 C-5.7 19.7 -6.4 19.5 -7.1 19.2 C-8 18.9 -8.9 18.5 -9.8 18.2 C-10.7 17.9 -11.6 17.5 -12.5 17.2 C-14.9 16 -16.3 15 -18 13 C-16.9 8.1 -14 6.1 -10.1 3.3 C-6.9 1.3 -3.8 0 0 0 Z " fill="#648cf5" transform="translate(555,1056)" style=""/>
<path d="M0 0 C0.3 0 0.7 0 1 0 C0.4 9.4 -1 18.7 -2.6 28 C-2.9 29.5 -3.1 31 -3.4 32.5 C-3.9 35.6 -4.5 38.7 -5 41.8 C-5.7 45.8 -6.4 49.9 -7.1 53.9 C-7.6 57 -8.2 60 -8.7 63.1 C-9 64.6 -9.2 66.1 -9.5 67.6 C-9.8 69.6 -10.2 71.7 -10.6 73.7 C-10.8 74.9 -11 76.1 -11.2 77.3 C-12 80 -12 80 -15 82 C-15.7 83 -16.3 84 -17 85 C-16.4 79.6 -15.5 74.3 -14.4 69 C-14.3 68.3 -14.1 67.5 -13.9 66.7 C-13.4 64.3 -12.9 61.8 -12.4 59.4 C-12 57.7 -11.7 55.9 -11.3 54.2 C-10.4 49.7 -9.5 45.2 -8.5 40.8 C-7.6 36.2 -6.6 31.6 -5.6 27 C-3.8 18 -1.9 9 0 0 Z " fill="#648cf5" transform="translate(707,377)" style=""/>
<path d="M0 0 C0.7 0.3 1.3 0.7 2 1 C0.5 10.4 -1.3 19.7 -3.2 29 C-3.3 29.7 -3.5 30.4 -3.6 31.2 C-4.4 35.1 -5.2 39 -6 42.8 C-6.8 46.9 -7.7 50.9 -8.5 54.9 C-9.1 58 -9.7 61 -10.4 64.1 C-10.7 65.6 -11 67.1 -11.3 68.6 C-11.7 70.6 -12.1 72.7 -12.5 74.7 C-12.8 75.9 -13 77.1 -13.2 78.3 C-14 81 -14 81 -16 83 C-14.6 72.9 -13 62.8 -11.2 52.8 C-11.1 52.1 -11 51.3 -10.9 50.6 C-10.2 46.7 -9.5 42.8 -8.8 38.9 C-8.1 35 -7.4 31 -6.8 27 C-6.2 23.9 -5.7 20.8 -5.1 17.7 C-4.9 16.2 -4.6 14.7 -4.4 13.3 C-4 11.2 -3.7 9.2 -3.3 7.1 C-3.1 6 -2.9 4.8 -2.7 3.6 C-2.5 2.7 -2.2 1.9 -2 1 C-1.3 0.7 -0.7 0.3 0 0 Z " fill="#648cf5" transform="translate(434,1626)" style=""/>
<path d="M0 0 C9.3 1.3 18.6 3 27.8 5 C29.2 5.3 30.5 5.5 31.9 5.8 C34.7 6.4 37.6 7 40.4 7.6 C44.1 8.4 47.7 9.1 51.3 9.9 C54.2 10.4 57 11 59.8 11.6 C61.1 11.9 62.5 12.2 63.8 12.4 C65.7 12.8 67.5 13.2 69.4 13.6 C70.5 13.8 71.5 14.1 72.6 14.3 C73.4 14.5 74.2 14.8 75 15 C75.5 16 75.5 16 76 17 C49 12.6 22 7.8 -5 3 C-5 2.7 -5 2.3 -5 2 C-3.3 2 -1.7 2 0 2 C0 1.3 0 0.7 0 0 Z " fill="#648cf5" transform="translate(1152,1210)" style=""/>
<path d="M0 0 C7.2 0.6 14.3 1.4 21.5 2.6 C22.9 2.9 22.9 2.9 24.3 3.1 C27.3 3.6 30.2 4.1 33.2 4.6 C35.2 4.9 37.2 5.2 39.3 5.6 C44.2 6.4 49.1 7.2 54 8 C52.8 9.5 52.8 9.5 51 11 C49.1 11.1 49.1 11.1 46.9 10.8 C46.1 10.7 45.3 10.6 44.5 10.4 C43.2 10.2 43.2 10.2 42 10 C41.2 9.9 40.5 9.7 39.7 9.6 C37.4 9.2 35 8.7 32.7 8.2 C31.8 8.1 31 7.9 30.1 7.7 C28.4 7.3 26.6 7 24.8 6.6 C22.1 6.1 19.4 5.5 16.7 5 C15 4.6 13.2 4.3 11.5 3.9 C10.7 3.7 9.9 3.6 9.1 3.4 C5.5 2.7 3 2 0 0 Z " fill="#648cf5" transform="translate(4,960)" style=""/>
<path d="M0 0 C0.7 0.3 1.3 0.7 2 1 C-12.8 15.9 -27.7 30.7 -43 46 C-43.7 45.7 -44.3 45.3 -45 45 C-44.3 44.3 -43.6 43.6 -42.8 42.9 C-36.5 36.7 -36.5 36.7 -30.6 30.1 C-23.7 22 -15.9 14.4 -7.7 7.5 C-5 5.1 -2.5 2.6 0 0 Z " fill="#648cf5" transform="translate(259,867)" style=""/>
<path d="M0 0 C0.7 0.3 1.3 0.7 2 1 C-1.4 23.4 -1.4 23.4 -5 27 C-5.3 20.8 -4.7 15.1 -3.6 9 C-3.4 7.9 -3.4 7.9 -3.2 6.7 C-2.9 4.8 -2.5 2.9 -2 1 C-1.3 0.7 -0.7 0.3 0 0 Z " fill="#648cf5" transform="translate(434,1626)" style=""/>
<path d="M0 0 C0.3 0 0.7 0 1 0 C0.4 10.1 -1.3 19.8 -3.1 29.8 C-3.3 31.3 -3.6 32.9 -3.9 34.5 C-4.6 38.3 -5.3 42.2 -6 46 C-10.7 37.7 -5.4 24.9 -3.4 15.9 C-3.1 14.4 -2.8 12.8 -2.4 11.3 C-1.6 7.5 -0.8 3.8 0 0 Z " fill="#648cf5" transform="translate(707,377)" style=""/>
<path d="M0 0 C8.2 1.1 16.1 2.6 24 5 C24 5.7 24 6.3 24 7 C14.2 6.5 4.7 4.8 -5 3 C-5 2.7 -5 2.3 -5 2 C-3.3 2 -1.7 2 0 2 C0 1.3 0 0.7 0 0 Z " fill="#648cf5" transform="translate(1152,1210)" style=""/>
<path d="M0 0 C11.5 1 11.5 1 17 2 C15.8 3.5 15.8 3.5 14 5 C11.9 5.1 11.9 5.1 9.6 4.8 C8.8 4.6 8 4.5 7.2 4.4 C2.4 3.5 2.4 3.5 0 3 C0 2 0 1 0 0 Z " fill="#648cf5" transform="translate(41,966)" style=""/>
<path d="M0 0 C0.7 0.3 1.3 0.7 2 1 C1.3 5 0.7 8.9 0 13 C-1 12.7 -2 12.3 -3 12 C-2.9 10.2 -2.8 8.4 -2.6 6.6 C-2.6 5.6 -2.5 4.5 -2.4 3.5 C-2.3 2.7 -2.1 1.9 -2 1 C-1.3 0.7 -0.7 0.3 0 0 Z " fill="#648cf5" transform="translate(434,1626)" style=""/>
<path d="M0 0 C0.3 0 0.7 0 1 0 C1.1 1.6 1.1 3.2 1.2 4.9 C1.2 5.8 1.3 6.7 1.3 7.6 C1.2 8.4 1.1 9.2 1 10 C0 10.7 -1 11.3 -2 12 C-2.7 13 -3.3 14 -4 15 C-2.7 2.7 -2.7 2.7 0 0 Z " fill="#648cf5" transform="translate(694,447)" style=""/>
<path d="M0 0 C1.5 1 1.5 1 3 2 C2.7 4 2.4 5.9 2.1 7.9 C2 9 1.8 10.1 1.6 11.2 C1 14 1 14 -1 16 C-1.1 10.6 -1.1 5.4 0 0 Z " fill="#648cf5" transform="translate(428,1649)" style=""/>
<path d="M0 0 C1.6 0.5 3.2 0.9 4.8 1.4 C6.2 1.8 6.2 1.8 7.5 2.1 C10 3 10 3 13 5 C12.3 5 11.7 5 11 5 C11 5.7 11 6.3 11 7 C6.9 5.6 3.5 3.5 0 1 C0 0.7 0 0.3 0 0 Z " fill="#648cf5" transform="translate(218,1249)" style=""/>
<path d="M0 0 C0.7 0.3 1.3 0.7 2 1 C-1 4 -3.9 6.9 -7 10 C-7 6 -5.6 4.9 -3 2 C-2 1.3 -1 0.7 0 0 Z " fill="#648cf5" transform="translate(545,1059)" style=""/>
<path d="M0 0 C7.8 -0.1 7.8 -0.1 10 1 C10 1.7 10 2.3 10 3 C4.6 3.4 4.6 3.4 1.6 1.5 C1.1 1 0.6 0.5 0 0 Z " fill="#648cf5" transform="translate(1166,1214)" style=""/>
<path d="M0 0 C1.6 0.3 1.6 0.3 3.2 0.7 C2.9 1.7 2.6 2.7 2.2 3.7 C-1 3.4 -4.3 3 -7.8 2.7 C-3.8 -0.3 -3.8 -0.3 0 0 Z " fill="#648cf5" transform="translate(1165.75,1212.3125)" style=""/>
<path d="M0 0 C2.3 3.5 2.1 4.2 1.6 8.2 C1.5 9.1 1.4 10 1.3 10.9 C1.2 11.6 1.1 12.3 1 13 C-0.9 9.8 -1.2 7.9 -0.6 4.2 C-0.5 3.5 -0.4 2.7 -0.3 1.8 C-0.2 1.2 -0.1 0.6 0 0 Z " fill="#648cf5" transform="translate(700,410)" style=""/>
<path d="M0 0 C3.3 0 6.6 0 10 0 C8.5 1.5 8.5 1.5 7 3 C3.7 2.8 2.4 2.4 0 0 Z " fill="#648cf5" transform="translate(48,968)" style=""/>
<path d="M0 0 C1.2 3.5 0.7 5.5 0 9 C-1.5 7.8 -1.5 7.8 -3 6 C-3 4.7 -3 3.4 -3 2 C-2 1.3 -1 0.7 0 0 Z " fill="#648cf5" transform="translate(696,442)" style=""/>
<path d="" fill="#648cf5" transform="translate(0,0)" style=""/>
<desc>Created with Snap</desc><defs/></svg>
<desc>Created with Snap</desc><defs/></svg>
</g>
<desc>Created with Snap</desc><defs/></svg>
</g>
<desc>Created with Snap</desc><defs/></svg></svg></g>
            <g id="icon_name_and_slogan_gap">
            </g>
            <g class="name_and_slogan" id="name_and_slogan_id">
              <g class="name"><g id="nameDefaultGroup"><path d="M45.3 -45.1L50.8 -4.3L38.4 -4.3L36.9 -15.4L19.7 -15.4L14.8 -4.3L3.1 -4.3L19 -43.1L16.9 -45.1L45.3 -45.1M29.4 -38.2L22.5 -22.3L36.3 -22.3L34.2 -38.2L29.4 -38.2M76.8 -45.1L70.6 -4.3L57.5 -4.3L62.3 -42.3L60.2 -45.1L76.8 -45.1M121.8 -28.2L142.3 0.6L126.5 0.6L113.5 -17.1L96.5 0.6L80.7 0.6L108 -27.9L110.9 -48.5L108.6 -51.2L125 -51.2L121.8 -28.2M88.9 -45.4L87.5 -47.1L101.9 -47.1L102.9 -25.2L89.9 -25.2L88.9 -45.4M126.1 -25.2L132.7 -45.4L131.3 -47.1L146.3 -47.1L139.1 -25.2L126.1 -25.2M209.1 -14.8L202.5 -12.6L206.9 0.6L195.9 0.6L188 -23.8L186.8 -23.8L184.5 -7.3L191.3 -8.1L190.4 -1.3L172.4 0.6L179.4 -49.8L212.3 -49.8L208.7 -23.8L198.9 -23.8L200.4 -19.2L210.2 -22.3L209.1 -14.8M170.1 -0.8L147.2 -0.8L154 -49.6L177 -49.6L170.1 -0.8M188.9 -39.5L201.1 -39.5L201.7 -43.3L189.5 -43.3L188.9 -39.5M199.8 -30.2L200.3 -34.1L188.1 -34.1L187.6 -30.2L199.8 -30.2M161.4 -35.8L165.5 -35.8L166.4 -41.9L162.2 -41.9L161.4 -35.8M161.6 -8.4L162.5 -14.5L158.3 -14.5L157.5 -8.4L161.6 -8.4M159.4 -22L163.6 -22L164.4 -28.2L160.3 -28.2L159.4 -22z" style="" fill="#648cf5" id="namepathdata"/></g></g>
              <g class="slogan"><g id="sloganDefaultGroup"/></g>
            </g>
            <g class="border">
            </g>
          </g>
          
          <defs id="defs">
            <mask xmlns="http://www.w3.org/2000/svg" id="mask">
                <rect id="showAll" fill="white" x="33.850000000000016" y="-208.89999999999998" width="147.7" height="147.7"/>
                <rect id="hideNameBg" fill="black" x="0" y="0" width="0" height="0" stroke-width="2" stroke="black"/>
                <rect id="hideSloganBg" fill="black" x="0" y="0" width="0" height="0" stroke-width="2" stroke="black"/>
            <path d="M45.3 -45.1L50.8 -4.3L38.4 -4.3L36.9 -15.4L19.7 -15.4L14.8 -4.3L3.1 -4.3L19 -43.1L16.9 -45.1L45.3 -45.1M29.4 -38.2L22.5 -22.3L36.3 -22.3L34.2 -38.2L29.4 -38.2M76.8 -45.1L70.6 -4.3L57.5 -4.3L62.3 -42.3L60.2 -45.1L76.8 -45.1M121.8 -28.2L142.3 0.6L126.5 0.6L113.5 -17.1L96.5 0.6L80.7 0.6L108 -27.9L110.9 -48.5L108.6 -51.2L125 -51.2L121.8 -28.2M88.9 -45.4L87.5 -47.1L101.9 -47.1L102.9 -25.2L89.9 -25.2L88.9 -45.4M126.1 -25.2L132.7 -45.4L131.3 -47.1L146.3 -47.1L139.1 -25.2L126.1 -25.2M209.1 -14.8L202.5 -12.6L206.9 0.6L195.9 0.6L188 -23.8L186.8 -23.8L184.5 -7.3L191.3 -8.1L190.4 -1.3L172.4 0.6L179.4 -49.8L212.3 -49.8L208.7 -23.8L198.9 -23.8L200.4 -19.2L210.2 -22.3L209.1 -14.8M170.1 -0.8L147.2 -0.8L154 -49.6L177 -49.6L170.1 -0.8M188.9 -39.5L201.1 -39.5L201.7 -43.3L189.5 -43.3L188.9 -39.5M199.8 -30.2L200.3 -34.1L188.1 -34.1L187.6 -30.2L199.8 -30.2M161.4 -35.8L165.5 -35.8L166.4 -41.9L162.2 -41.9L161.4 -35.8M161.6 -8.4L162.5 -14.5L158.3 -14.5L157.5 -8.4L161.6 -8.4M159.4 -22L163.6 -22L164.4 -28.2L160.3 -28.2L159.4 -22z" style="stroke-width: 0;" fill="#000000" id="masknamepathdata" stroke="#000000" paint-order="stroke" transform="matrix(1,0,0,1,0,0)"/></mask>
          </defs>
          
        </g>
        </svg>